<svg width="50" height="50" viewBox="0 0 50 50" fill="none" xmlns="http://www.w3.org/2000/svg">
<g clip-path="url(#clip0_105_928)">
<rect x="1.5" y="1.5" width="47" height="47" rx="1.5" stroke="#42eafe" stroke-width="3"/>
<circle cx="12" cy="15" r="5" fill="#42eafe"/>
<path d="M26.7963 23.3855C27.9841 22.0997 30.0159 22.0997 31.2037 23.3855L48.597 42.2143C50.3719 44.1358 49.0091 47.25 46.3933 47.25H11.6067C8.99089 47.25 7.62808 44.1358 9.40303 42.2143L26.7963 23.3855Z" fill="#42eafe"/>
<path d="M12.8542 32.1962C14.0312 30.9916 15.9688 30.9916 17.1458 32.1962L29.0729 44.4034C30.9291 46.3032 29.5831 49.5 26.9271 49.5H3.07285C0.416894 49.5 -0.929071 46.3032 0.927055 44.4034L12.8542 32.1962Z" fill="#42eafe"/>
</g>
<defs>
<clipPath id="clip0_105_928">
<rect width="50" height="50" fill="white"/>
</clipPath>
</defs>
</svg>
