<svg width="44" height="44" viewBox="0 0 44 44" fill="none" xmlns="http://www.w3.org/2000/svg">
<g clip-path="url(#clip0_2_10)">
<path d="M22 28.1875C27.6954 28.1875 32.3125 23.5704 32.3125 17.875C32.3125 12.1796 27.6954 7.5625 22 7.5625C16.3046 7.5625 11.6875 12.1796 11.6875 17.875C11.6875 23.5704 16.3046 28.1875 22 28.1875Z" fill="#42EAFE"/>
<g filter="url(#filter0_d_2_10)">
<path d="M41.9375 21.439V15.6853C42.7357 15.4007 43.3125 14.6444 43.3125 13.7493C43.3125 12.6122 42.3871 11.6868 41.25 11.6868C41.0135 11.6868 40.7894 11.7349 40.5776 11.8085L37.4969 7.95713C37.6936 7.64294 37.8125 7.27375 37.8125 6.875C37.8125 5.73787 36.8871 4.8125 35.75 4.8125C35.1718 4.8125 34.6507 5.05312 34.2753 5.43744L28.8558 2.93631C28.8619 2.87375 28.875 2.81394 28.875 2.75C28.875 1.61287 27.9496 0.6875 26.8125 0.6875C25.9174 0.6875 25.1611 1.26431 24.8765 2.0625H17.061C16.7764 1.26431 16.0201 0.6875 15.125 0.6875C13.9879 0.6875 13.0625 1.61287 13.0625 2.75C13.0625 2.83525 13.0776 2.91706 13.0879 2.99956L9.67794 4.70456C9.30669 4.34775 8.80481 4.125 8.25 4.125C7.11287 4.125 6.1875 5.05037 6.1875 6.1875C6.1875 6.58625 6.30644 6.95544 6.50238 7.271L3.42169 11.1217C3.20994 11.0481 2.9865 11 2.75 11C1.61287 11 0.6875 11.9254 0.6875 13.0625C0.6875 13.9576 1.26431 14.7139 2.0625 14.9985V19.3772C1.26431 19.6611 0.6875 20.4174 0.6875 21.3125C0.6875 22.4496 1.61287 23.375 2.75 23.375C3.51381 23.375 4.17381 22.9529 4.53063 22.3348L8.28369 23.0175C8.4425 23.9972 9.28813 24.75 10.3125 24.75C10.3407 24.75 10.3661 24.7431 10.3936 24.7417L11.7054 28.0211C11.2764 28.3999 11 28.9465 11 29.5625C11 30.6996 11.9254 31.625 13.0625 31.625C13.7541 31.625 14.3639 31.2799 14.7379 30.756L20.6381 32.4417C20.691 33.2791 21.241 33.9776 22 34.2485V39.3147C21.2018 39.5993 20.625 40.3556 20.625 41.2507C20.625 42.3878 21.5504 43.3132 22.6875 43.3132C23.8246 43.3132 24.75 42.3878 24.75 41.2507C24.75 40.3556 24.1732 39.5993 23.375 39.3147V34.2485C24.1732 33.9639 24.75 33.2076 24.75 32.3125C24.75 31.6539 24.4338 31.0723 23.9511 30.6948L24.772 28.2322L30.9409 30.2885C30.9574 31.1664 31.5253 31.9048 32.3118 32.1853V39.314C31.5136 39.5986 30.9368 40.3549 30.9368 41.25C30.9368 42.3871 31.8622 43.3125 32.9993 43.3125C34.1364 43.3125 35.0618 42.3871 35.0618 41.25C35.0618 40.3549 34.485 39.5986 33.6868 39.314V32.186C34.485 31.9014 35.0618 31.1451 35.0618 30.25C35.0618 29.9991 35.0103 29.7612 34.9277 29.5384L40.2029 25.1426C40.5109 25.3254 40.8664 25.4375 41.25 25.4375C42.3871 25.4375 43.3125 24.5121 43.3125 23.375C43.3125 22.4799 42.7357 21.7236 41.9375 21.439ZM12.3709 22.649C12.3695 22.5665 12.3571 22.4874 12.3461 22.4077L17.9857 19.4837L19.7299 25.1027L12.3709 22.649ZM10.8364 20.7006L9.8835 13.3939L14.5949 13.1581C14.894 13.8827 15.5946 14.3956 16.4182 14.4286L17.5725 18.1486L11.7171 21.1846C11.4709 20.9557 11.1705 20.7893 10.8364 20.7006ZM4.65575 12.2788C4.61244 12.1736 4.55675 12.0746 4.49694 11.979L7.57763 8.12831C7.65738 8.15581 7.73575 8.18538 7.81894 8.20325L8.327 12.0952L4.65575 12.2788ZM9.18156 8.01762C9.84981 7.67594 10.3125 6.98775 10.3125 6.1875C10.3125 6.10225 10.2974 6.02044 10.2871 5.93794L13.6971 4.23294C14.0683 4.58975 14.5702 4.8125 15.125 4.8125C15.5471 4.8125 15.9397 4.68394 16.2669 4.46531L20.5363 7.667L17.4453 10.5518C17.1607 10.4046 16.8424 10.3125 16.5 10.3125C15.5691 10.3125 14.7895 10.9361 14.5337 11.7851L9.70475 12.0264L9.18156 8.01762ZM24.9239 3.57294L21.5573 6.71481L17.1868 3.4375H24.8765C24.893 3.48288 24.9047 3.52894 24.9239 3.57294ZM26.8407 13.343L21.3084 16.2119L18.3556 13.2591C18.4841 12.9896 18.5625 12.6926 18.5625 12.375C18.5625 12.0821 18.4992 11.8051 18.3892 11.5528L21.6535 8.50575L26.9149 12.452C26.8544 12.6459 26.8125 12.8487 26.8125 13.0625C26.8125 13.1587 26.8283 13.2502 26.8407 13.343ZM17.1875 12.375C17.1875 12.7538 16.8795 13.0625 16.5 13.0625C16.1205 13.0625 15.8125 12.7538 15.8125 12.375C15.8125 11.9962 16.1205 11.6875 16.5 11.6875C16.8795 11.6875 17.1875 11.9962 17.1875 12.375ZM20.0282 16.8754L18.8121 17.5058L17.9809 14.828L20.0282 16.8754ZM19.2259 18.8403L21.0478 17.8956L24.2687 21.1166C24.1409 21.3854 24.0625 21.6824 24.0625 22C24.0625 22.6593 24.3787 23.2402 24.8614 23.6177L23.903 26.4928L21.3359 25.6369L19.2259 18.8403ZM26.125 22.6875C25.7455 22.6875 25.4375 22.3788 25.4375 22C25.4375 21.6212 25.7455 21.3125 26.125 21.3125C26.5045 21.3125 26.8125 21.6212 26.8125 22C26.8125 22.3788 26.5045 22.6875 26.125 22.6875ZM26.125 19.9375C25.8074 19.9375 25.5104 20.0152 25.2416 20.1444L22.3286 17.2315L27.4711 14.5647C27.8396 14.9098 28.3312 15.125 28.875 15.125C29.2586 15.125 29.6141 15.0129 29.9221 14.8294L33.0522 17.4377L27.4952 20.4689C27.1294 20.1424 26.653 19.9375 26.125 19.9375ZM34.7724 8.67969C35.0646 8.83919 35.3946 8.9375 35.75 8.9375C35.9865 8.9375 36.2099 8.88937 36.4217 8.81581L39.5024 12.6672C39.3064 12.9827 39.1875 13.3512 39.1875 13.75C39.1875 13.8607 39.2033 13.9679 39.2205 14.0738L34.3509 16.7303L30.8034 13.7741C30.8859 13.5513 30.9375 13.3134 30.9375 13.0625C30.9375 12.7827 30.8804 12.5166 30.7794 12.2732L34.7724 8.67969ZM40.2036 21.6074L35.4867 17.6763L39.8805 15.2797C40.0778 15.4571 40.3081 15.5946 40.5632 15.6853V21.439C40.4367 21.4844 40.3171 21.5401 40.2036 21.6074ZM29.5625 13.0625C29.5625 13.4413 29.2545 13.75 28.875 13.75C28.4955 13.75 28.1875 13.4413 28.1875 13.0625C28.1875 12.6837 28.4955 12.375 28.875 12.375C29.2545 12.375 29.5625 12.6837 29.5625 13.0625ZM34.188 18.3851L39.1146 22.4909L28.4405 21.5201L34.188 18.3851ZM41.9375 13.75C41.9375 14.1288 41.6295 14.4375 41.25 14.4375C40.8705 14.4375 40.5625 14.1288 40.5625 13.75C40.5625 13.3712 40.8705 13.0625 41.25 13.0625C41.6295 13.0625 41.9375 13.3712 41.9375 13.75ZM35.75 6.1875C36.1295 6.1875 36.4375 6.49619 36.4375 6.875C36.4375 7.25381 36.1295 7.5625 35.75 7.5625C35.3705 7.5625 35.0625 7.25381 35.0625 6.875C35.0625 6.49619 35.3705 6.1875 35.75 6.1875ZM33.7061 6.68869C33.7006 6.75125 33.6875 6.81106 33.6875 6.875C33.6875 7.15481 33.7446 7.42088 33.8456 7.66425L29.8519 11.2578C29.5604 11.0983 29.2304 11 28.875 11C28.4529 11 28.0603 11.1286 27.7331 11.3472L22.6744 7.55288L25.8679 4.57256C26.1518 4.72106 26.4701 4.8125 26.8125 4.8125C27.3907 4.8125 27.9125 4.57188 28.2872 4.18756L33.7061 6.68869ZM26.8125 2.0625C27.192 2.0625 27.5 2.37119 27.5 2.75C27.5 3.12881 27.192 3.4375 26.8125 3.4375C26.433 3.4375 26.125 3.12881 26.125 2.75C26.125 2.37119 26.433 2.0625 26.8125 2.0625ZM15.125 2.0625C15.5045 2.0625 15.8125 2.37119 15.8125 2.75C15.8125 3.12881 15.5045 3.4375 15.125 3.4375C14.7455 3.4375 14.4375 3.12881 14.4375 2.75C14.4375 2.37119 14.7455 2.0625 15.125 2.0625ZM8.25 5.5C8.6295 5.5 8.9375 5.80869 8.9375 6.1875C8.9375 6.56631 8.6295 6.875 8.25 6.875C7.8705 6.875 7.5625 6.56631 7.5625 6.1875C7.5625 5.80869 7.8705 5.5 8.25 5.5ZM2.75 12.375C3.1295 12.375 3.4375 12.6837 3.4375 13.0625C3.4375 13.4413 3.1295 13.75 2.75 13.75C2.3705 13.75 2.0625 13.4413 2.0625 13.0625C2.0625 12.6837 2.3705 12.375 2.75 12.375ZM2.75 22C2.3705 22 2.0625 21.6913 2.0625 21.3125C2.0625 20.9337 2.3705 20.625 2.75 20.625C3.1295 20.625 3.4375 20.9337 3.4375 21.3125C3.4375 21.6913 3.1295 22 2.75 22ZM3.4375 19.3765V14.9978C4.05212 14.7785 4.52719 14.2801 4.71625 13.6517L8.50575 13.4619L9.46412 20.8113C9.0695 20.9901 8.74706 21.2912 8.53187 21.6638L4.7795 20.9825C4.65781 20.2345 4.13531 19.6254 3.4375 19.3765ZM9.625 22.6875C9.625 22.3087 9.933 22 10.3125 22C10.692 22 11 22.3087 11 22.6875C11 23.0663 10.692 23.375 10.3125 23.375C9.933 23.375 9.625 23.0663 9.625 22.6875ZM11.6696 24.2282C11.7652 24.1443 11.8518 24.0515 11.9302 23.9511L20.2318 26.7183L21.4576 30.6666C21.2871 30.7945 21.1358 30.9451 21.0121 31.1183L15.1119 29.4326C15.0439 28.3573 14.1556 27.5 13.0625 27.5C13.035 27.5 13.0089 27.5069 12.9821 27.5083L11.6696 24.2282ZM13.0625 30.25C12.683 30.25 12.375 29.9413 12.375 29.5625C12.375 29.1837 12.683 28.875 13.0625 28.875C13.442 28.875 13.75 29.1837 13.75 29.5625C13.75 29.9413 13.442 30.25 13.0625 30.25ZM22.6875 41.9375C22.308 41.9375 22 41.6288 22 41.25C22 40.8712 22.308 40.5625 22.6875 40.5625C23.067 40.5625 23.375 40.8712 23.375 41.25C23.375 41.6288 23.067 41.9375 22.6875 41.9375ZM22.6875 33C22.308 33 22 32.6913 22 32.3125C22 31.9337 22.308 31.625 22.6875 31.625C23.067 31.625 23.375 31.9337 23.375 32.3125C23.375 32.6913 23.067 33 22.6875 33ZM22.7109 30.0685L21.8371 27.2539L23.4678 27.7977L22.7109 30.0685ZM26.1635 24.0584C26.9761 24.0432 27.6719 23.5565 27.9936 22.8601L39.259 23.8844C39.2769 23.9532 39.2975 24.0206 39.3216 24.0866L34.0464 28.4824C33.7384 28.2996 33.3836 28.1875 33 28.1875C32.3414 28.1875 31.7598 28.5037 31.3823 28.9864L25.2072 26.928L26.1635 24.0584ZM33 41.9375C32.6205 41.9375 32.3125 41.6288 32.3125 41.25C32.3125 40.8712 32.6205 40.5625 33 40.5625C33.3795 40.5625 33.6875 40.8712 33.6875 41.25C33.6875 41.6288 33.3795 41.9375 33 41.9375ZM33 30.9375C32.6205 30.9375 32.3125 30.6288 32.3125 30.25C32.3125 29.8712 32.6205 29.5625 33 29.5625C33.3795 29.5625 33.6875 29.8712 33.6875 30.25C33.6875 30.6288 33.3795 30.9375 33 30.9375ZM41.25 24.0625C40.8705 24.0625 40.5625 23.7538 40.5625 23.375C40.5625 22.9962 40.8705 22.6875 41.25 22.6875C41.6295 22.6875 41.9375 22.9962 41.9375 23.375C41.9375 23.7538 41.6295 24.0625 41.25 24.0625Z" fill="white"/>
</g>
</g>
<defs>
<filter id="filter0_d_2_10" x="-3.3125" y="0.6875" width="50.625" height="50.6257" filterUnits="userSpaceOnUse" color-interpolation-filters="sRGB">
<feFlood flood-opacity="0" result="BackgroundImageFix"/>
<feColorMatrix in="SourceAlpha" type="matrix" values="0 0 0 0 0 0 0 0 0 0 0 0 0 0 0 0 0 0 127 0" result="hardAlpha"/>
<feOffset dy="4"/>
<feGaussianBlur stdDeviation="2"/>
<feComposite in2="hardAlpha" operator="out"/>
<feColorMatrix type="matrix" values="0 0 0 0 0 0 0 0 0 0 0 0 0 0 0 0 0 0 0.25 0"/>
<feBlend mode="normal" in2="BackgroundImageFix" result="effect1_dropShadow_2_10"/>
<feBlend mode="normal" in="SourceGraphic" in2="effect1_dropShadow_2_10" result="shape"/>
</filter>
<clipPath id="clip0_2_10">
<rect width="44" height="44" fill="white"/>
</clipPath>
</defs>
</svg>
