<svg width="50" height="50" viewBox="0 0 50 50" fill="none" xmlns="http://www.w3.org/2000/svg">
<path fill-rule="evenodd" clip-rule="evenodd" d="M35.008 26.5C35.008 27.0523 34.5602 27.5 34.008 27.5H33.7408C33.1885 27.5 32.7408 27.0523 32.7408 26.5V23.5C32.7408 22.9477 33.1885 22.5 33.7408 22.5H34.008C34.5602 22.5 35.008 22.9477 35.008 23.5V26.5ZM30.4736 29C30.4736 29.5523 30.0258 30 29.4736 30H29.2064C28.6541 30 28.2064 29.5523 28.2064 29V21C28.2064 20.4477 28.6541 20 29.2064 20H29.4736C30.0258 20 30.4736 20.4477 30.4736 21V29ZM25.9392 32.75C25.9392 33.3023 25.4914 33.75 24.9392 33.75H24.672C24.1197 33.75 23.672 33.3023 23.672 32.75V17.25C23.672 16.6977 24.1197 16.25 24.672 16.25H24.9392C25.4914 16.25 25.9392 16.6977 25.9392 17.25V32.75ZM21.4048 29C21.4048 29.5523 20.957 30 20.4048 30H20.1376C19.5853 30 19.1376 29.5523 19.1376 29V21C19.1376 20.4477 19.5853 20 20.1376 20H20.4048C20.957 20 21.4048 20.4477 21.4048 21V29ZM16.8704 26.5C16.8704 27.0523 16.4226 27.5 15.8704 27.5H15.6031C15.0509 27.5 14.6031 27.0523 14.6031 26.5V23.5C14.6031 22.9477 15.0509 22.5 15.6031 22.5H15.8704C16.4226 22.5 16.8704 22.9477 16.8704 23.5V26.5Z" fill="#42eafe"/>
<path d="M43.6879 39.535C46.9696 35.915 48.9999 30.915 48.9999 25.3925C48.9999 19.87 46.9696 14.87 43.6879 11.25" stroke="#42eafe" stroke-width="1.5" stroke-miterlimit="10" stroke-linecap="round" stroke-linejoin="round"/>
<path d="M40.4811 35.9989C42.9433 33.2851 44.4657 29.5351 44.4657 25.3926C44.4657 21.2501 42.9433 17.5001 40.4811 14.7864" stroke="#42eafe" stroke-width="1.5" stroke-miterlimit="10" stroke-linecap="round" stroke-linejoin="round"/>
<path d="M37.2753 32.4635C38.9167 30.6535 39.9313 28.1535 39.9313 25.3923C39.9313 22.631 38.9167 20.131 37.2753 18.321" stroke="#42eafe" stroke-width="1.5" stroke-miterlimit="10" stroke-linecap="round" stroke-linejoin="round"/>
<path d="M6.31213 11.2499C3.03036 14.8699 1.00008 19.8699 1.00008 25.3924C1.00008 30.9149 3.03036 35.9149 6.31213 39.5349" stroke="#42eafe" stroke-width="1.5" stroke-miterlimit="10" stroke-linecap="round" stroke-linejoin="round"/>
<path d="M9.51892 14.786C7.05674 17.4998 5.53431 21.2498 5.53431 25.3923C5.53431 29.5348 7.05674 33.2848 9.51892 35.9985" stroke="#42eafe" stroke-width="1.5" stroke-miterlimit="10" stroke-linecap="round" stroke-linejoin="round"/>
<path d="M12.7249 18.3211C11.0834 20.1311 10.0688 22.6311 10.0688 25.3924C10.0688 28.1536 11.0834 30.6536 12.7249 32.4636" stroke="#42eafe" stroke-width="1.5" stroke-miterlimit="10" stroke-linecap="round" stroke-linejoin="round"/>
</svg>
