<svg width="50" height="50" viewBox="0 0 50 50" fill="none" xmlns="http://www.w3.org/2000/svg">
<path fill-rule="evenodd" clip-rule="evenodd" d="M3 0H8.33337V2H3C2.44772 2 2 2.44772 2 3V8.87088H0V3C0 1.34315 1.34315 0 3 0ZM0 41.1289V47C0 48.6569 1.34315 50 3 50H8.33337V48H3C2.44772 48 2 47.5523 2 47V41.1289H0ZM48 41.1289V47C48 47.5523 47.5523 48 47 48H41.6667V50H47C48.6569 50 50 48.6569 50 47V41.1289H48ZM50 8.87088V3C50 1.34315 48.6569 0 47 0H41.6667V2H47C47.5523 2 48 2.44772 48 3V8.87088H50Z" fill="#42eafe"/>
<path d="M40.5782 9L41 16.5044H39.9315C39.7252 15.1829 39.4441 14.2389 39.0879 13.6726C38.5067 12.7601 37.7288 12.0914 36.754 11.6667C35.7979 11.2262 34.5325 11.0059 32.9578 11.0059H27.587V35.4543C27.587 37.4208 27.8401 38.648 28.3462 39.1357C29.0586 39.7965 30.1552 40.1268 31.6362 40.1268H32.9578V41H16.7891V40.1268H18.1388C19.751 40.1268 20.8946 39.7178 21.5694 38.8997C21.9818 38.3963 22.188 37.2478 22.188 35.4543V11.0059H17.6046C15.8237 11.0059 14.5583 11.116 13.8084 11.3363C12.8336 11.6352 11.9994 12.2094 11.3058 13.059C10.6122 13.9086 10.1998 15.057 10.0685 16.5044H9L9.44991 9H40.5782Z" fill="#42eafe"/>
</svg>
